Coordinates
version=1
nRows=9
nColumns=36
inDegrees=yes

Units are S.I. units (second, meters, Newtons, ...)
If the header above contains a line with 'inDegrees', this indicates whether rotational values are in degrees (yes) or radians (no).

endheader
time	pelvis_tilt	pelvis_list	pelvis_rotation	pelvis_tx	pelvis_ty	pelvis_tz	hip_flexion_r	hip_adduction_r	hip_rotation_r	knee_angle_r	knee_angle_r_beta	ankle_angle_r	subtalar_angle_r	mtp_angle_r	hip_flexion_l	hip_adduction_l	hip_rotation_l	knee_angle_l	knee_angle_l_beta	ankle_angle_l	subtalar_angle_l	mtp_angle_l	lumbar_extension	lumbar_bending	lumbar_rotation	arm_flex_r	arm_add_r	arm_rot_r	elbow_flex_r	pro_sup_r	arm_flex_l	arm_add_l	arm_rot_l	elbow_flex_l	pro_sup_l
      0.00000000	    -24.91441508	      2.13272524	     -5.77656249	     -0.93215647	      1.17045683	     -0.09381929	     48.96330838	     -2.89797303	      0.32738103	     37.11435449	      0.64776769	      8.00122692	     -7.28417601	     -5.83174808	     43.89957154	     -7.37930362	     -9.41480013	     31.57605484	      0.55110612	      1.50578740	     -4.71368146	     -5.83174808	    -19.85460746	      0.24596368	      1.95992591	     -0.29582669	    -26.37082189	     20.31257161	     26.28170960	     59.30191762	     -5.76649435	    -21.09239284	     11.59192954	     29.87068474	     61.71829941
      0.00416670	    -25.99063229	      3.97438909	     -4.67683154	     -0.92559396	      1.16930577	     -0.08917357	     49.59119380	     -4.25627843	      1.90105075	     36.19084685	      0.63164944	     13.48650411	     -1.91046083	     -6.12638292	     44.98016437	     -5.54340324	    -10.66991632	     32.36752716	      0.56491992	      6.10709033	      2.34597485	     -6.12638292	    -18.07851831	     -1.34793616	      0.69448609	      1.19223681	    -22.60405314	     26.54865136	     17.12827820	     60.01857489	     -5.49805113	    -21.04676087	     14.91023687	     22.90170947	     59.27382687
      0.00833330	    -26.58334739	      4.54303908	     -4.76058035	     -0.92546474	      1.16993167	     -0.08874862	     49.55819611	     -4.63432090	      1.67731926	     35.07489147	      0.61217234	     13.91967184	     -1.34606688	     -6.73241734	     44.86817843	     -5.44876145	    -11.13375132	     31.56552165	      0.55092228	      6.47263979	      3.36080408	     -6.73241734	    -17.58134928	     -2.34880298	      0.79259635	      1.58054481	    -23.34824238	     41.55977958	     15.87758937	     48.64739349	     -4.05829752	    -22.43332202	     28.30956271	     20.13320762	     45.56388621
      0.01250000	    -26.69408945	      4.56816638	     -4.77116025	     -0.92577208	      1.17080425	     -0.08870549	     49.52777601	     -4.80786284	      1.50641596	     34.91881814	      0.60944835	     14.57161835	      0.19607830	     -6.79386002	     44.62161443	     -5.41972806	    -11.39994679	     30.96459453	      0.54043413	      7.06789030	      4.46483097	     -6.79386002	    -17.86287645	     -2.53461694	      1.13854614	      1.49225030	    -23.95685420	     44.36671669	     15.86359429	     49.26039249	     -3.64126688	    -22.87915186	     29.41317736	     18.93606871	     46.00577698
      0.01666670	    -26.91339662	      4.63881126	     -4.64362634	     -0.92556323	      1.17157101	     -0.08870610	     49.54349662	     -4.95947542	      1.48344577	     34.65210752	      0.60479337	     14.70167921	      0.61245601	     -6.91843474	     44.24645753	     -5.29511850	    -12.03204586	     29.84731939	      0.52093400	      7.15261655	      5.46143057	     -6.91843474	    -17.54677991	     -2.61417793	      1.01033798	      1.97359263	    -24.48452930	     51.51318012	     15.68130315	     48.17901872	     -3.88713902	    -23.62989707	     32.74670671	     19.00312831	     45.08179320
      0.02083330	    -27.22442346	      4.76120081	     -4.69267827	     -0.92555857	      1.17199975	     -0.08870882	     49.94268855	     -5.07580988	      1.48935631	     34.93739658	      0.60977260	     14.58026848	      0.77548592	     -7.13048086	     44.18159817	     -5.26551736	    -12.62531666	     29.04958152	      0.50701084	      7.13333026	      6.41200443	     -7.13048086	    -17.26047331	     -2.79789782	      0.75189770	      2.63756926	    -24.93113759	     55.31267369	     16.06974354	     41.40925347	     -4.10322138	    -24.17091118	     31.27124491	     19.92877839	     41.69511010
      0.02500000	    -27.50025389	      4.83656727	     -4.62526638	     -0.92521108	      1.17246911	     -0.08859069	     50.18105239	     -5.18323574	      1.44463454	     34.98197676	      0.61055067	     14.46967611	      1.09013369	     -7.16256821	     44.20993594	     -5.11091315	    -12.83828884	     28.27245076	      0.49344735	      7.08330651	      7.43755715	     -7.16256821	    -16.97723046	     -2.94246517	      0.71010140	      2.56752234	    -25.13461957	     55.25043607	     16.36084824	     42.28794445	     -4.19551181	    -24.62460104	     31.02766540	     19.92574782	     42.68383376
      0.02916670	    -27.24168640	      4.82039401	     -4.60991139	     -0.91953023	      1.17322987	     -0.08439103	     49.64175360	     -5.08276818	      1.47312475	     34.95442357	      0.61006978	     14.52515927	      1.20813802	     -7.17058808	     43.49087719	     -5.23866788	    -13.19286103	     27.81332852	      0.48543416	      7.04104904	      8.67522246	     -7.17058808	    -17.13302011	     -3.17428975	      0.79089397	      1.97329733	    -24.82151890	     55.85738970	     16.25796020	     42.17235036	     -4.12980932	    -24.82790612	     31.01450136	     19.12558596	     42.67448898
      0.03333330	    -27.30281057	      4.77552397	     -4.73882711	     -0.92568718	      1.17396987	     -0.08860383	     49.78590013	     -4.98499247	      1.46923182	     35.10678152	      0.61272893	     14.43271330	      1.26278338	     -7.17131595	     43.56728768	     -5.30491087	    -13.00812109	     27.80139623	      0.48522590	      6.96665461	      8.85341106	     -7.17131595	    -17.23696448	     -3.24573410	      0.90930675	      1.96086400	    -25.18072867	     55.89662282	     16.12983935	     42.15804362	     -4.27525269	    -25.01183066	     30.99463174	     18.94798430	     42.66900729
